<?xml version="1.0" standalone="no"?>
<!DOCTYPE svg PUBLIC "-//W3C//DTD SVG 20010904//EN"
 "http://www.w3.org/TR/2001/REC-SVG-20010904/DTD/svg10.dtd">
<svg version="1.0" xmlns="http://www.w3.org/2000/svg"
 width="600.000000pt" height="200.000000pt" viewBox="0 0 600.000000 200.000000"
 preserveAspectRatio="xMidYMid meet">
<metadata>
Created by potrace 1.16, written by Peter Selinger 2001-2019
</metadata>
<g transform="translate(0.000000,200.000000) scale(0.100000,-0.100000)"
fill="#000000" stroke="none">
<path d="M5205 1890 c-159 -38 -293 -69 -297 -69 -5 -1 -8 -70 -8 -155 l0
-155 60 -33 60 -33 0 -88 0 -88 -56 36 c-77 49 -80 37 -5 -14 40 -27 61 -49
61 -61 0 -11 2 -20 5 -20 2 0 54 18 114 39 l110 39 14 -21 c10 -16 13 -57 12
-152 -1 -71 0 -138 3 -147 4 -15 6 -15 19 -3 10 10 35 15 77 15 35 0 82 7 105
15 25 8 39 10 35 4 -4 -7 0 -9 12 -6 11 3 71 11 134 17 63 7 125 16 138 21 42
17 92 63 92 86 0 12 5 25 10 28 20 12 11 76 -17 111 -59 78 -118 84 -199 17
l-58 -46 24 39 c13 21 20 36 15 32 -4 -4 -14 -3 -22 3 -7 6 -26 9 -42 6 -16
-3 -34 -1 -42 6 -7 7 -4 1 7 -13 27 -31 47 -70 37 -70 -4 0 -21 14 -39 31 -18
18 -52 36 -80 43 -47 12 -51 12 -90 -15 -59 -40 -70 -56 -74 -109 0 -12 -3
-11 -15 3 -7 11 -11 25 -8 33 3 8 -2 26 -12 40 -13 20 -14 28 -4 40 6 8 17 14
23 13 7 0 6 -2 -1 -6 -13 -5 -19 -33 -8 -33 16 0 68 34 58 37 -8 3 -9 12 -2
33 10 26 23 33 167 80 86 29 162 57 167 62 7 8 4 9 -10 3 -35 -13 -68 -18 -63
-9 3 5 13 43 22 85 13 60 21 78 36 82 19 5 20 15 20 145 l0 140 -69 16 c-39 9
-83 15 -98 15 -15 -1 -158 -32 -318 -69z"/>
<path d="M1220 1610 l0 -180 54 0 c47 0 57 4 75 26 26 33 29 118 6 151 -10 14
-12 24 -5 28 5 3 10 33 10 65 0 71 -19 90 -92 90 l-48 0 0 -180z"/>
<path d="M1400 1610 l0 -180 60 0 c57 0 60 1 60 24 0 21 -6 25 -32 28 -32 3
-33 4 -36 56 l-3 52 30 0 c26 0 31 4 31 25 0 21 -5 25 -30 25 -29 0 -30 2 -30
44 0 43 1 45 33 48 27 2 32 7 32 28 0 23 -4 25 -57 28 l-58 3 0 -181z"/>
<path d="M1546 1775 c-3 -9 -6 -91 -6 -181 l0 -164 25 0 25 0 0 102 c0 56 2
99 5 97 2 -3 11 -39 20 -80 24 -119 24 -119 45 -119 21 0 23 5 45 119 8 47 17
87 20 89 3 3 5 -43 5 -102 0 -106 0 -107 23 -104 22 3 22 4 22 178 l0 175 -32
3 c-37 4 -35 8 -59 -135 -10 -57 -20 -101 -22 -98 -3 3 -15 56 -27 118 l-22
112 -30 3 c-21 2 -32 -2 -37 -13z"/>
<path d="M1860 1769 c0 -20 35 -260 46 -311 5 -24 11 -28 38 -28 l33 0 22 163
c12 89 23 169 24 177 3 22 -40 25 -46 3 -3 -10 -11 -67 -18 -128 -14 -121 -16
-119 -39 53 -12 86 -14 92 -36 92 -18 0 -24 -6 -24 -21z"/>
<path d="M2050 1610 l0 -180 25 0 25 0 0 180 0 180 -25 0 -25 0 0 -180z"/>
<path d="M2147 1783 c-4 -3 -7 -84 -7 -180 l0 -173 25 0 c24 0 24 1 27 98 l3
97 35 -97 c26 -73 39 -98 53 -98 16 0 17 15 17 180 0 172 -1 180 -20 180 -18
0 -20 -8 -22 -97 l-3 -98 -35 98 c-24 68 -39 97 -51 97 -8 0 -19 -3 -22 -7z"/>
<path d="M2348 1784 c-5 -4 -8 -85 -8 -181 l0 -173 55 0 c89 0 95 11 95 178 0
165 -3 173 -81 180 -30 2 -57 0 -61 -4z"/>
<path d="M2551 1771 c-27 -27 -33 -71 -29 -194 4 -123 16 -147 78 -147 67 0
75 20 75 180 0 122 -2 140 -19 159 -25 27 -79 28 -105 2z"/>
<path d="M2807 1783 c-3 -5 -15 -76 -26 -158 -12 -83 -24 -160 -27 -173 -4
-21 -1 -23 23 -20 22 2 29 9 31 31 3 22 8 27 32 27 24 0 29 -5 32 -27 2 -22 9
-29 30 -31 25 -3 27 -1 22 30 -3 18 -15 98 -27 178 l-22 145 -32 3 c-17 2 -33
-1 -36 -5z"/>
<path d="M3010 1610 l0 -180 60 0 c57 0 60 1 60 25 0 22 -4 25 -35 25 l-35 0
0 155 0 155 -25 0 -25 0 0 -180z"/>
<path d="M3169 1771 c-23 -19 -24 -24 -24 -166 0 -166 4 -175 77 -175 62 0 73
28 73 180 0 104 -3 131 -18 153 -21 33 -73 37 -108 8z"/>
<path d="M3410 1648 c0 -79 -4 -149 -9 -157 -15 -24 -31 -1 -31 45 0 40 -2 44
-25 44 -32 0 -39 -18 -31 -75 9 -55 27 -75 69 -75 68 0 77 25 77 209 l0 151
-25 0 -25 0 0 -142z"/>
<path d="M3530 1781 c0 -11 -37 -269 -45 -318 -5 -30 -4 -33 20 -33 20 0 27 6
32 30 4 25 10 30 34 30 26 0 29 -4 29 -30 0 -25 4 -30 25 -30 31 0 31 1 5 178
-29 194 -25 182 -65 182 -19 0 -35 -4 -35 -9z"/>
<path d="M988 1293 c-2 -21 2 -58 8 -83 20 -77 24 -108 13 -112 -6 -2 -17 -68
-25 -146 -7 -79 -19 -152 -24 -163 -6 -11 -8 -25 -4 -31 4 -6 3 -8 -3 -5 -10
6 -33 -54 -33 -86 0 -9 12 -16 29 -19 22 -3 28 -1 23 11 -3 9 -1 12 6 7 12 -7
106 36 118 55 11 18 -101 2 -133 -18 l-26 -18 15 25 c9 14 26 70 38 125 12 55
30 128 41 162 21 65 21 179 0 193 -7 4 -9 23 -6 44 4 33 -15 96 -30 96 -2 0
-5 -17 -7 -37z"/>
<path d="M760 1163 c-12 -16 -18 -33 -14 -42 4 -9 16 -46 27 -83 23 -75 24
-71 -34 -224 l-23 -62 19 -40 c11 -23 30 -46 43 -51 25 -12 28 -4 7 23 -19 26
-19 105 0 126 22 24 87 340 71 340 -3 0 -16 -4 -30 -10 -23 -9 -26 -7 -26 15
0 35 -16 39 -40 8z"/>
<path d="M560 568 c-17 -9 -26 -23 -28 -45 l-3 -31 103 -19 c57 -11 104 -19
105 -19 9 5 -23 98 -36 106 -32 17 -115 22 -141 8z"/>
</g>
</svg>
